<?xml version="1.0" standalone="no"?>
<!DOCTYPE svg PUBLIC "-//W3C//DTD SVG 20010904//EN"
 "http://www.w3.org/TR/2001/REC-SVG-20010904/DTD/svg10.dtd">
<svg version="1.0" xmlns="http://www.w3.org/2000/svg"
 width="499.000000pt" height="499.000000pt" viewBox="0 0 499.000000 499.000000"
 preserveAspectRatio="xMidYMid meet">
<metadata>
Created by potrace 1.11, written by Peter Selinger 2001-2013
</metadata>
<g transform="translate(0.000000,499.000000) scale(0.100000,-0.100000)"
fill="#000000" stroke="none">
<path d="M2075 4819 c-341 -42 -606 -129 -773 -253 l-64 -47 -66 28 c-168 71
-358 -2 -445 -172 -27 -52 -31 -71 -31 -140 -1 -69 3 -86 26 -126 32 -54 82
-100 141 -130 23 -12 43 -22 45 -24 1 -1 -4 -33 -12 -71 -43 -204 -45 -468 -6
-934 11 -135 20 -273 20 -307 l0 -63 -38 0 c-89 0 -215 -61 -252 -122 -23 -39
-26 -91 -6 -107 8 -7 18 -25 21 -41 8 -34 43 -60 84 -60 29 0 86 22 150 60 19
11 36 18 38 16 2 -1 -6 -124 -17 -272 -22 -300 -26 -571 -9 -726 28 -261 115
-471 254 -618 l54 -56 -28 -17 c-16 -9 -48 -33 -71 -52 -134 -112 -151 -209
-51 -293 42 -35 57 -42 93 -42 50 0 84 19 183 101 69 57 143 98 177 99 9 0 64
-16 122 -35 421 -141 1011 -126 1396 37 52 22 103 42 113 45 14 4 44 -20 120
-100 62 -64 113 -108 130 -112 48 -12 92 3 141 48 43 40 46 47 46 93 0 64 -38
130 -119 207 l-61 58 21 22 c162 168 270 454 310 815 12 114 8 697 -6 769 l-6
33 56 -30 c72 -38 126 -40 160 -5 14 13 25 31 25 40 0 9 7 23 15 31 8 9 15 32
15 52 0 74 -94 148 -217 172 l-62 12 -5 52 c-3 28 -8 231 -10 451 -3 220 -9
445 -15 500 -11 98 -55 358 -66 386 -3 9 11 22 40 38 157 83 213 249 137 404
-40 81 -111 148 -190 177 -78 30 -184 24 -264 -14 l-56 -27 -64 44 c-166 116
-370 182 -638 206 -133 13 -384 12 -485 0z"/>
</g>
</svg>
